# AST/ASF file generated using VICON BodyLanguage
# -----------------------------------------------
:version 1.10
:name VICON
:units
  mass 1.0
  length 0.45
  angle deg
:documentation
   .ast/.asf automatically generated from VICON data using
   VICON BodyBuilder and BodyLanguage model FoxedUp or BRILLIANT.MOD
:root
   order TX TY TZ RX RY RZ
   axis XYZ
   position 0 0 0  
   orientation 0 0 0 
:bonedata
  begin
     id 1 
     name lhipjoint
     direction 0.578396 -0.714046 0.394458 
     length 2.21935 
     axis 0 0 0  XYZ
  end
  begin
     id 2 
     name lfemur
     direction 0.34202 -0.939693 0  
     length 6.39105  
     axis 0 0 20  XYZ
    dof rx ry rz
    limits (-160.0 20.0)
           (-70.0 70.0)
           (-60.0 70.0)
  end
  begin
     id 3 
     name ltibia
     direction 0.34202 -0.939693 0   
     length 6.99037   
     axis 0 0 20   XYZ
    dof rx
    limits (-10.0 170.0)
  end
  begin
     id 4 
     name lfoot
     direction 0.0582372 -0.160005 0.985397   
     length 2.06111   
     axis -90 7.62852e-016 20   XYZ
    dof rx rz
    limits (-45.0 90.0)
           (-70.0 20.0)
  end
  begin
     id 5 
     name ltoes
     direction 1.53556e-011 -4.21875e-011 1   
     length 1.04074   
     axis -90 7.62852e-016 20   XYZ
    dof rx
    limits (-90.0 20.0)
  end
  begin
     id 6 
     name rhipjoint
     direction -0.558179 -0.726269 0.40121   
     length 2.182  
     axis 0 0 0  XYZ 
  end
  begin
     id 7 
     name rfemur
     direction -0.34202 -0.939693 0   
     length 6.51172   
     axis 0 0 -20   XYZ
    dof rx ry rz
    limits (-160.0 20.0)
           (-70.0 70.0)
           (-70.0 60.0)
  end
  begin
     id 8 
     name rtibia
     direction -0.34202 -0.939693 0   
     length 7.02607   
     axis 0 0 -20   XYZ
    dof rx
    limits (-10.0 170.0)
 end
 begin
     id 9 
     name rfoot
     direction -0.0788856 -0.216737 0.973038   
     length 1.96734  
     axis -90 -7.62852e-016 -20   XYZ
    dof rx rz
    limits (-45.0 90.0)
           (-20.0 70.0)
  end
  begin
     id 10 
     name rtoes
     direction -1.53567e-011 -4.21783e-011 1   
     length 0.990825   
     axis -90 -7.62852e-016 -20   XYZ
    dof rx
    limits (-90.0 20.0)
  end
  begin
     id 11 
     name lowerback
     direction 0.00668177 0.999323 -0.0361741   
     length 1.7655   
     axis 0 0 0   XYZ
    dof rx ry rz
    limits (-20.0 45.0)
           (-30.0 30.0)
           (-30.0 30.0)
  end
  begin
     id 12 
     name upperback
     direction -0.00222086 0.99851 0.0545167   
     length 1.74912   
     axis 0 0 0   XYZ
    dof rx ry rz
    limits (-20.0 45.0)
           (-30.0 30.0)
           (-30.0 30.0)
  end
  begin
     id 13 
     name thorax
     direction -0.00733971 0.997496 0.0703443   
     length 1.75715   
     axis 0 0 0   XYZ
    dof rx ry rz
    limits (-20.0 45.0)
           (-30.0 30.0)
           (-30.0 30.0)
  end
  begin
     id 14 
     name lowerneck
     direction 0.0279797 0.994795 0.0979765   
     length 1.46939   
     axis 0 0 0   XYZ
    dof rx ry rz
    limits (-20.0 45.0)
           (-30.0 30.0)
           (-30.0 30.0)
  end
  begin
     id 15 
     name upperneck
     direction 0.00339187 0.976776 -0.214238   
     length 1.48018   
     axis 0 0 0   XYZ
    dof rx ry rz
    limits (-20.0 45.0)
           (-30.0 30.0)
           (-30.0 30.0)
  end
  begin
     id 16
     name head
     direction -0.00263506 0.996603 -0.0823096  
     length 1.4976  
     axis 0 0 0   XYZ
    dof rx ry rz
    limits (-20.0 45.0)
           (-30.0 30.0)
           (-30.0 30.0)
  end
  begin
     id 17 
     name lclavicle
     direction 0.894044 0.44508 -0.0508781  
     length 3.03024  
     axis 0 0 0   XYZ
    dof ry rz
    limits (-20.0 10.0)
           (0.0 20.0)
  end
  begin
     id 18 
     name lhumerus
     direction 1 -4.48961e-011 -2.39475e-018   
     length 4.4661   
     axis 180 -30 -90   XYZ
    dof rx ry rz
    limits (-60.0 90.0)
           (-90.0 90.0)
           (-90.0 90.0)
  end
  begin
     id 19
     name lradius
     direction 1 -4.48961e-011 9.29328e-028   
     length 3.41414   
     axis 180 -30 -90   XYZ
    dof rx
    limits (-10.0 170.0)
  end
  begin
     id 20
     name lwrist
     direction 1 -4.48985e-011 1.53461e-026   
     length 1.70707   
     axis -1.09697e-014 90 90   XYZ
    dof ry
    limits (-180.0 0.0)
 end
  begin
     id 21 
     name lhand
     direction 1 -4.48966e-011 3.06923e-026   
     length 0.328298   
     axis -1.95843e-014 90 90   XYZ
    dof rx rz
    limits (-90.0 90.0)
           (-45.0 45.0)
  end
  begin
     id 22 
     name lfingers
     direction 1 -4.48893e-011 6.13845e-026   
     length 0.264682   
     axis -3.91686e-014 90 90   XYZ
    dof rx
    limits (0.0 90.0)
  end
  begin
     id 23
     name lthumb
     direction 0.707107 -6.34876e-011 0.707107   
     length 0.380032   
     axis -90 45 2.85299e-015   XYZ
    dof rx rz
    limits (-45.0 45.0)
           (-45.0 45.0)
  end
  begin
     id 24 
     name rclavicle
     direction -0.936955 0.347862 -0.0332887   
     length 3.26927  
     axis 0 0 0   XYZ 
    dof ry rz
    limits (-10.0 20.0)
           (-20.0 0.0)
  end
  begin
     id 25 
     name rhumerus
     direction -1 -4.4896e-011 1.78637e-018  
     length 4.40431   
     axis 180 30 90   XYZ
    dof rx ry rz
    limits (-90.0 60.0)
           (-90.0 90.0)
           (-90.0 90.0)
  end
  begin
     id 26 
     name rradius
     direction -1 -4.48955e-011 9.34036e-027   
     length 3.04688   
     axis 180 30 90   XYZ
    dof rx
    limits (-10.0 170.0)
  end
  begin
     id 27 
     name rwrist
     direction -1 -4.49011e-011 1.53461e-026   
     length 1.52344   
     axis -1.09697e-014 -90 -90   XYZ
    dof ry
    limits (-180.0 0.0)
  end
  begin
     id 28
     name rhand
     direction -1 -4.48834e-011 3.06923e-026   
     length 0.500489   
     axis -1.95843e-014 -90 -90   XYZ
    dof rx rz
    limits (-90.0 90.0)
           (-45.0 45.0)
  end
  begin
     id 29
     name rfingers
     direction -1 -4.48967e-011 6.13845e-026   
     length 0.403507   
     axis -3.91686e-014 -90 -90   XYZ
    dof rx
    limits (0.0 90.0)
  end
  begin
     id 30
     name rthumb
     direction -0.707107 -6.34826e-011 0.707107   
     length 0.579358   
     axis -90 -45 -2.85299e-015   XYZ
    dof rx rz
    limits (-45.0 45.0)
           (-45.0 45.0)
  end
:hierarchy
  begin
    root lhipjoint rhipjoint lowerback
    lhipjoint lfemur
    lfemur ltibia
    ltibia lfoot
    lfoot ltoes
    rhipjoint rfemur
    rfemur rtibia
    rtibia rfoot
    rfoot rtoes
    lowerback upperback
    upperback thorax
    thorax lowerneck lclavicle rclavicle
    lowerneck upperneck
    upperneck head
    lclavicle lhumerus
    lhumerus lradius
    lradius lwrist
    lwrist lhand lthumb
    lhand lfingers
    rclavicle rhumerus
    rhumerus rradius
    rradius rwrist
    rwrist rhand rthumb
    rhand rfingers
  end

#!OML:ASF H:\IndianDance\Patient Classification 1\Patient 1\Session 1\dancer.ASF
:FULLY-SPECIFIED
:DEGREES
691
root -33.3149 13.7414 -12.3975 367.286 -19.0006 -7.58315
lowerback 10.3463 3.39574 8.24756
upperback -4.11302 5.84298 1.01846
thorax -9.55282 2.33871 -4.5618
lowerneck -13.6113 10.7362 11.8913
upperneck 16.0909 13.3492 -6.07074
head 8.45681 6.51482 -2.29588
rclavicle 2.88331e-014 6.4605e-015
rhumerus -33.3127 20.0701 -44.3821
rradius 109.081
rwrist -45.6769
rhand -33.019 10.1549
rfingers 7.12502
rthumb -6.23251 -19.7334
lclavicle 2.88331e-014 6.4605e-015
lhumerus -25.679 -44.842 76.6357
lradius 103.05
lwrist 14.9598
lhand -5.7944 18.779
lfingers 7.12502
lthumb 20.03 47.7666
rfemur -32.3207 -11.5423 23.9599
rtibia 68.7107
rfoot -26.6814 -11.8844
rtoes -15.9351
lfemur -51.5635 2.91856 -15.6276
ltibia 85.3323
lfoot -15.2235 9.27201
ltoes -12.243
692
root -33.2901 13.6783 -12.4058 367.14 -17.2088 -7.75007
lowerback 10.5907 3.32318 8.41205
upperback -4.05864 5.79355 1.03144
thorax -9.63062 2.3014 -4.64898
lowerneck -13.3051 10.8661 11.9481
upperneck 15.4709 13.5359 -6.16061
head 8.22257 6.60603 -2.33137
rclavicle -2.59554e-014 -1.09332e-015
rhumerus -33.1176 18.7586 -45.3846
rradius 108.718
rwrist -51.9297
rhand -35.8513 7.92004
rfingers 7.12502
rthumb -8.96629 -21.8694
lclavicle -2.59554e-014 -1.09332e-015
lhumerus -25.8113 -44.8495 75.6432
lradius 104.092
lwrist 12.7549
lhand -4.12109 15.7097
lfingers 7.12502
lthumb 21.6377 44.5207
rfemur -32.3553 -11.9243 24.0179
rtibia 69.3978
rfoot -26.9913 -12.5913
rtoes -16.1286
lfemur -52.81 3.94302 -15.0762
ltibia 86.8692
lfoot -15.2986 8.91553
ltoes -12.0768
693
root -33.2621 13.6219 -12.4096 366.968 -15.4869 -7.90017
lowerback 10.8628 3.26315 8.54697
upperback -4.00421 5.76149 1.05689
thorax -9.72637 2.27357 -4.71136
lowerneck -12.9861 11.0199 12.0371
upperneck 14.845 13.7625 -6.31692
head 7.99712 6.71262 -2.3889
rclavicle 3.49845e-014 1.09829e-014
rhumerus -32.8996 17.374 -46.2336
rradius 108.478
rwrist -58.0556
rhand -38.7868 6.18341
rfingers 7.12502
rthumb -11.798 -23.4643
lclavicle 3.49845e-014 1.09829e-014
lhumerus -25.8622 -44.9001 74.5736
lradius 105.353
lwrist 11.8799
lhand -2.97764 13.2117
lfingers 7.12502
lthumb 22.7354 41.8921
rfemur -32.2986 -12.3893 24.0126
rtibia 69.9726
rfoot -27.2792 -13.1386
rtoes -16.3429
lfemur -54.0567 5.08188 -14.5964
ltibia 88.299
lfoot -15.2799 8.56196
ltoes -11.6729
694
root -33.231 13.5732 -12.4091 366.763 -13.8264 -8.01803
lowerback 11.1601 3.21467 8.63006
upperback -3.94569 5.74072 1.08684
thorax -9.83572 2.25381 -4.74391
lowerneck -12.6701 11.1944 12.1632
upperneck 14.2152 14.0186 -6.52754
head 7.78279 6.83101 -2.4656
rclavicle -3.179e-014 -1.3418e-014
rhumerus -32.6875 15.9279 -46.9377
rradius 108.339
rwrist -63.7289
rhand -41.5884 4.97719
rfingers 7.12502
rthumb -14.4986 -24.4962
lclavicle -3.179e-014 -1.3418e-014
lhumerus -25.7919 -44.9627 73.3986
lradius 106.794
lwrist 12.2174
lhand -2.35197 11.3066
lfingers 7.12502
lthumb 23.3358 39.9121
rfemur -32.1338 -12.9321 23.9343
rtibia 70.419
rfoot -27.5549 -13.5611
rtoes -16.506
lfemur -55.2905 6.32392 -14.2086
ltibia 89.6133
lfoot -15.1407 8.19646
ltoes -11.1095
695
root -33.1971 13.5328 -12.4041 366.54 -12.2224 -8.11004
lowerback 11.462 3.18563 8.66223
upperback -3.88325 5.73919 1.12068
thorax -9.94536 2.2467 -4.74748
lowerneck -12.4159 11.3902 12.2609
upperneck 13.6219 14.3036 -6.74279
head 7.59425 6.96037 -2.53222
rclavicle -3.34828e-015 5.96354e-015
rhumerus -32.525 14.4534 -47.5064
rradius 108.289
rwrist -68.6642
rhand -44.023 4.11503
rfingers 7.12502
rthumb -16.8433 -25.1745
lclavicle -3.34828e-015 5.96354e-015
lhumerus -25.5539 -44.9928 72.0947
lradius 108.362
lwrist 13.501
lhand -2.18045 9.95269
lfingers 7.12502
lthumb 23.5003 38.5372
rfemur -31.8647 -13.5273 23.8026
rtibia 70.7219
rfoot -27.8143 -13.9234
rtoes -16.6538
lfemur -56.5133 7.60103 -13.8924
ltibia 90.8047
lfoot -14.8597 7.79748
ltoes -10.3404
696
root -33.1602 13.5024 -12.3943 366.31 -10.676 -8.17666
lowerback 11.753 3.17479 8.64561
upperback -3.81803 5.75268 1.15029
thorax -10.0469 2.25034 -4.7302
lowerneck -12.2176 11.6033 12.3308
upperneck 13.0506 14.6084 -6.94717
head 7.42333 7.09796 -2.5857
rclavicle 3.54209e-014 7.95139e-015
rhumerus -32.4244 13.0322 -47.9727
rradius 108.327
rwrist -72.6875
rhand -46.0115 3.37941
rfingers 7.12502
rthumb -18.7567 -25.7363
lclavicle 3.54209e-014 7.95139e-015
lhumerus -25.1295 -44.9177 70.6329
lradius 110
lwrist 15.3859
lhand -2.41799 9.02298
lfingers 7.12502
lthumb 23.2724 37.6365
rfemur -31.4907 -14.149 23.6231
rtibia 70.8655
rfoot -28.0509 -14.2522
rtoes -16.7691
lfemur -57.7204 8.86919 -13.6239
ltibia 91.8647
lfoot -14.4632 7.24439
ltoes -8.75349
697
root -33.12 13.4824 -12.3791 366.09 -9.19255 -8.21491
lowerback 12.01 3.18357 8.57816
upperback -3.75468 5.77916 1.16595
thorax -10.1312 2.26404 -4.69955
lowerneck -12.0742 11.8349 12.3711
upperneck 12.4997 14.9313 -7.12293
head 7.2671 7.2444 -2.62045
rclavicle -3.46227e-014 1.65985e-014
rhumerus -32.3945 11.745 -48.3752
rradius 108.459
rwrist -75.7188
rhand -47.5351 2.55483
rfingers 7.12502
rthumb -20.2216 -26.4126
lclavicle -3.46227e-014 1.65985e-014
lhumerus -24.4921 -44.6782 68.9563
lradius 111.646
lwrist 17.5141
lhand -3.01834 8.37313
lfingers 7.12502
lthumb 22.6964 37.0584
rfemur -31.0254 -14.7682 23.3957
rtibia 70.8427
rfoot -28.2591 -14.5623
rtoes -16.8451
lfemur -58.9107 10.1143 -13.4068
ltibia 92.7818
lfoot -13.9077 6.57161
ltoes -6.59192
698
root -33.0766 13.4733 -12.3582 365.907 -7.77991 -8.23535
lowerback 12.2149 3.21054 8.46704
upperback -3.70692 5.81637 1.16518
thorax -10.2028 2.28565 -4.66097
lowerneck -11.9731 12.0855 12.3758
upperneck 11.9701 15.2731 -7.25107
head 7.1213 7.40154 -2.63029
rclavicle -1.37348e-014 -2.38542e-014
rhumerus -32.4327 10.6894 -48.7441
rradius 108.699
rwrist -77.7782
rhand -48.6455 1.54584
rfingers 7.12502
rthumb -21.2886 -27.3049
lclavicle -1.37348e-014 -2.38542e-014
lhumerus -23.6579 -44.1904 67.0741
lradius 113.211
lwrist 19.5614
lhand -3.92202 7.86886
lfingers 7.12502
lthumb 21.8288 36.6577
rfemur -30.4937 -15.3495 23.1433
rtibia 70.6497
rfoot -28.4134 -14.8852
rtoes -16.944
lfemur -60.0962 11.3322 -13.2191
ltibia 93.5505
lfoot -13.1721 5.7856
ltoes -3.92233
699
root -33.0289 13.4752 -12.3311 365.768 -6.4479 -8.24682
lowerback 12.3583 3.25461 8.33319
upperback -3.67871 5.86497 1.143
thorax -10.2582 2.31407 -4.63093
lowerneck -11.9037 12.3503 12.3627
upperneck 11.4648 15.6266 -7.33769
head 6.98572 7.56637 -2.6213
rclavicle -2.16551e-014 -3.13086e-014
rhumerus -32.5268 9.9398 -49.1116
rradius 109.053
rwrist -78.9243
rhand -49.4102 0.347959
rfingers 7.12502
rthumb -22.0229 -28.4182
lclavicle -2.16551e-014 -3.13086e-014
lhumerus -22.632 -43.4008 64.9798
lradius 114.616
lwrist 21.3835
lhand -5.03547 7.44775
lfingers 7.12502
lthumb 20.7593 36.3573
rfemur -29.9039 -15.8662 22.8711
rtibia 70.2876
rfoot -28.4985 -15.2031
rtoes -17.008
lfemur -61.267 12.5188 -13.0489
ltibia 94.1666
lfoot -12.2676 4.91312
ltoes -0.872292
700
root -32.9765 13.4878 -12.2979 365.682 -5.20239 -8.25755
lowerback 12.4387 3.31278 8.18892
upperback -3.67726 5.92355 1.09983
thorax -10.304 2.34733 -4.61569
lowerneck -11.849 12.6219 12.3384
upperneck 10.9876 15.9835 -7.38237
head 6.85795 7.73556 -2.59645
rclavicle -4.45402e-014 2.5842e-015
rhumerus -32.6507 9.55833 -49.4834
rradius 109.517
rwrist -79.2693
rhand -49.8764 -0.990111
rfingers 7.12502
rthumb -22.4704 -29.7028
lclavicle -4.45402e-014 2.5842e-015
lhumerus -21.44 -42.2706 62.7042
lradius 115.786
lwrist 22.9638
lhand -6.28444 7.11434
lfingers 7.12502
lthumb 19.5589 36.1505
rfemur -29.2656 -16.2952 22.5895
rtibia 69.7585
rfoot -28.4966 -15.5184
rtoes -17.0563
lfemur -62.4151 13.6785 -12.8844
ltibia 94.6282
lfoot -11.2058 4.01085
ltoes 2.14039
701
root -32.9187 13.5108 -12.2583 365.643 -4.04517 -8.26938
lowerback 12.4644 3.38423 8.03539
upperback -3.70798 5.99325 1.04086
thorax -10.3514 2.38531 -4.61141
lowerneck -11.7887 12.8881 12.3176
upperneck 10.5471 16.3304 -7.40014
head 6.73831 7.90267 -2.56531
rclavicle -7.24197e-014 -9.93923e-016
rhumerus -32.7895 9.58467 -49.8572
rradius 110.085
rwrist -78.9326
rhand -50.0766 -2.36862
rfingers 7.12502
rthumb -22.6626 -31.058
lclavicle -7.24197e-014 -9.93923e-016
lhumerus -20.1524 -40.7924 60.3478
lradius 116.65
lwrist 24.4181
lhand -7.61214 6.91241
lfingers 7.12502
lthumb 18.282 36.0733
rfemur -28.5745 -16.6195 22.2942
rtibia 69.0647
rfoot -28.3934 -15.8254
rtoes -17.102
lfemur -63.5179 14.8107 -12.723
ltibia 94.9344
lfoot -10.0362 3.10354
ltoes 4.88756
702
root -32.8547 13.544 -12.2126 365.639 -2.97915 -8.29134
lowerback 12.445 3.46754 7.88597
upperback -3.76935 6.07572 0.968884
thorax -10.4035 2.4279 -4.62343
lowerneck -11.725 13.1377 12.3053
upperneck 10.155 16.6531 -7.39494
head 6.63013 8.06036 -2.53134
rclavicle -5.82688e-015 1.41137e-014
rhumerus -32.9209 10.0221 -50.2292
rradius 110.74
rwrist -78.0236
rhand -50.0086 -3.69459
rfingers 7.12502
rthumb -22.5973 -32.3919
lclavicle -5.82688e-015 1.41137e-014
lhumerus -18.7612 -38.9724 57.9146
lradius 117.146
lwrist 25.9594
lhand -8.88166 6.82023
lfingers 7.12502
lthumb 17.0603 36.0911
rfemur -27.8186 -16.8245 21.9885
rtibia 68.2058
rfoot -28.1778 -16.1132
rtoes -17.1515
lfemur -64.5503 15.9213 -12.5558
ltibia 95.0877
lfoot -8.80398 2.23282
ltoes 6.87398
703
root -32.7839 13.5869 -12.1607 365.659 -2.0019 -8.32362
lowerback 12.3907 3.56185 7.74343
upperback -3.86031 6.17184 0.888192
thorax -10.4652 2.47525 -4.64956
lowerneck -11.6564 13.3614 12.3159
upperneck 9.82781 16.9408 -7.38634
head 6.54044 8.20244 -2.50339
rclavicle -7.76503e-015 -2.127e-014
rhumerus -33.0296 10.8615 -50.5846
rradius 111.464
rwrist -76.6088
rhand -49.6805 -4.87634
rfingers 7.12502
rthumb -22.2824 -33.6117
lclavicle -7.76503e-015 -2.127e-014
lhumerus -17.3324 -36.8765 55.5052
lradius 117.254
lwrist 27.8381
lhand -10.2955 7.02431
lfingers 7.12502
lthumb 15.6991 36.4075
rfemur -26.9824 -16.8987 21.6646
rtibia 67.1812
rfoot -27.8455 -16.3681
rtoes -17.203
lfemur -65.4857 17.0075 -12.3816
ltibia 95.0905
lfoot -7.57414 1.39542
ltoes 8.08148
704
root -32.706 13.6397 -12.1025 365.692 -1.10871 -8.36581
lowerback 12.3053 3.66108 7.61219
upperback -3.9771 6.27427 0.797359
thorax -10.5347 2.52367 -4.69256
lowerneck -11.569 13.549 12.3613
upperneck 9.54771 17.1792 -7.3785
head 6.46135 8.32245 -2.48738
rclavicle 4.53602e-014 2.5842e-014
rhumerus -33.0896 12.0743 -50.9209
rradius 112.225
rwrist -74.7017
rhand -49.1117 -5.88948
rfingers 7.12502
rthumb -21.7363 -34.6891
lclavicle 4.53602e-014 2.5842e-014
lhumerus -15.887 -34.5364 53.1584
lradius 116.922
lwrist 30.1281
lhand -11.594 7.41995
lfingers 7.12502
lthumb 14.4482 36.897
rfemur -26.0521 -16.8339 21.3163
rtibia 65.9866
rfoot -27.3847 -16.5776
rtoes -17.2444
lfemur -66.3004 18.0625 -12.1934
ltibia 94.945
lfoot -6.39946 0.583686
ltoes 8.44424
